<?xml version="1.0" encoding="UTF-8" standalone="no"?>
<!-- Created with Inkscape (http://www.inkscape.org/) -->

<svg
   width="128"
   height="128"
   viewBox="0 0 33.866667 33.866667"
   version="1.1"
   id="svg1"
   sodipodi:docname="ASI_Logo_Icon.svg"
   inkscape:version="1.3.2 (091e20e, 2023-11-25, custom)"
   inkscape:export-filename="WIP3.3 - Saturn-A.png"
   inkscape:export-xdpi="1024"
   inkscape:export-ydpi="1024"
   xmlns:inkscape="http://www.inkscape.org/namespaces/inkscape"
   xmlns:sodipodi="http://sodipodi.sourceforge.net/DTD/sodipodi-0.dtd"
   xmlns="http://www.w3.org/2000/svg"
   xmlns:svg="http://www.w3.org/2000/svg"
   xmlns:rdf="http://www.w3.org/1999/02/22-rdf-syntax-ns#"
   xmlns:cc="http://creativecommons.org/ns#"
   xmlns:dc="http://purl.org/dc/elements/1.1/">
  <sodipodi:namedview
     id="namedview1"
     pagecolor="#303030"
     bordercolor="#cbcbcb"
     borderopacity="1"
     inkscape:showpageshadow="0"
     inkscape:pageopacity="0"
     inkscape:pagecheckerboard="0"
     inkscape:deskcolor="#292929"
     inkscape:document-units="px"
     showgrid="false"
     inkscape:zoom="8"
     inkscape:cx="55.125"
     inkscape:cy="41.625"
     inkscape:window-width="2560"
     inkscape:window-height="1411"
     inkscape:window-x="-9"
     inkscape:window-y="-9"
     inkscape:window-maximized="1"
     inkscape:current-layer="g222"
     inkscape:export-bgcolor="#25252500" />
  <defs
     id="defs1" />
  <g
     inkscape:groupmode="layer"
     id="g87"
     inkscape:label="Structure Objects"
     style="display:none">
    <circle
       style="fill:none;fill-rule:evenodd;stroke:#ed333b;stroke-width:2.4388;stroke-linecap:round;stroke-dasharray:none;stroke-opacity:1"
       id="circle84"
       cx="15.950079"
       cy="15.426608"
       r="9.5938931" />
    <circle
       style="fill:none;fill-rule:evenodd;stroke:#f66151;stroke-width:1.0452;stroke-linecap:round;stroke-dasharray:none;stroke-opacity:1"
       id="circle85"
       cx="15.950079"
       cy="15.426608"
       r="9.5938931" />
    <ellipse
       style="fill:none;fill-rule:evenodd;stroke:#ff7800;stroke-width:2.78782;stroke-linecap:round;stroke-dasharray:none;stroke-opacity:1"
       id="ellipse85"
       cx="6.4860425"
       cy="23.339911"
       rx="15.013336"
       ry="2.0145316"
       transform="matrix(0.85831385,-0.51312507,0.48698874,0.87340825,0,0)" />
    <ellipse
       style="fill:none;fill-rule:evenodd;stroke:#ffa348;stroke-width:1.39391;stroke-linecap:round;stroke-dasharray:none;stroke-opacity:1"
       id="ellipse86"
       cx="6.4860425"
       cy="23.339911"
       rx="15.013336"
       ry="2.0145316"
       transform="matrix(0.85831385,-0.51312507,0.48698874,0.87340825,0,0)" />
    <ellipse
       style="fill:#ffbe6f;fill-opacity:1;fill-rule:evenodd;stroke:none;stroke-width:1.39391;stroke-linecap:round;stroke-dasharray:none;stroke-opacity:1"
       id="ellipse109"
       cx="6.4860425"
       cy="23.339911"
       rx="15.013336"
       ry="2.0145316"
       transform="matrix(0.85831385,-0.51312507,0.48698874,0.87340825,0,0)" />
    <path
       style="fill:#f9f06b;fill-rule:evenodd;stroke:none;stroke-width:2.78719;stroke-linecap:round;stroke-dasharray:none;stroke-opacity:1"
       d="M 14.105654,29.23393 C 2.1371115,11.531562 17.630721,10.06503 20.940517,3.2145304 19.430544,13.716295 20.06018,18.383953 24.32313,22.659356 c -0.396171,0.942157 -0.516091,1.936621 -0.254092,3.317943 -5.752561,-3.892491 -7.706179,-10.001231 -6.516454,-15.203652 -6.525293,4.320833 -5.625585,9.211279 -1.632963,15.509801 -0.972911,0.959371 -1.528153,1.695282 -1.813967,2.950482 z"
       id="path87"
       sodipodi:nodetypes="ccccccc" />
    <path
       style="fill:none;fill-rule:evenodd;stroke:#f8e45c;stroke-width:1.3936;stroke-linecap:round;stroke-dasharray:none;stroke-opacity:1"
       d="M 14.105654,29.23393 C 2.1371115,11.531562 17.630721,10.06503 20.940517,3.2145304 19.430544,13.716295 20.06018,18.383953 24.32313,22.659356 c -0.396171,0.942157 -0.516091,1.936621 -0.254092,3.317943 -5.752561,-3.892491 -7.706179,-10.001231 -6.516454,-15.203652 -6.525293,4.320833 -5.625585,9.211279 -1.632963,15.509801 -0.972911,0.959371 -1.528153,1.695282 -1.813967,2.950482 z"
       id="path109"
       sodipodi:nodetypes="ccccccc" />
  </g>
  <metadata
     id="metadata190">
    <rdf:RDF>
      <cc:Work
         rdf:about="">
        <dc:creator>
          <cc:Agent>
            <dc:title>Jason Daniel Pieck</dc:title>
          </cc:Agent>
        </dc:creator>
      </cc:Work>
    </rdf:RDF>
  </metadata>
  <g
     inkscape:groupmode="layer"
     id="g189"
     inkscape:label="Structure Objects"
     style="display:none">
    <path
       style="color:#000000;fill:#ed333b;fill-rule:evenodd;stroke-linecap:round;-inkscape-stroke:none"
       d="m 15.949219,4.6132812 c -5.9575678,0 -10.8125003,4.8549325 -10.8125003,10.8124998 10e-8,5.957568 4.8549325,10.814453 10.8125003,10.814453 5.957567,0 10.814453,-4.856885 10.814453,-10.814453 0,-5.9575673 -4.856886,-10.8124998 -10.814453,-10.8124998 z m 0,2.4394532 c 4.639543,0 8.375,3.7335036 8.375,8.3730466 0,4.639544 -3.735457,8.375 -8.375,8.375 -4.639544,0 -8.3730471,-3.735456 -8.3730471,-8.375 0,-4.639543 3.7335031,-8.3730466 8.3730471,-8.3730466 z"
       id="circle185" />
    <path
       style="color:#000000;fill:#f66151;fill-rule:evenodd;stroke-linecap:round;-inkscape-stroke:none"
       d="m 15.949219,5.3105469 c -5.580989,0 -10.1152346,4.5342451 -10.1152346,10.1152341 0,5.580989 4.5342456,10.117188 10.1152346,10.117188 5.580989,0 10.117187,-4.536199 10.117187,-10.117188 0,-5.580989 -4.536198,-10.1152341 -10.117187,-10.1152341 z m 0,1.0449218 c 5.016122,10e-8 9.072265,4.0541903 9.072265,9.0703123 0,5.016122 -4.056143,9.072266 -9.072265,9.072266 -5.016122,0 -9.0703128,-4.056144 -9.0703128,-9.072266 10e-8,-5.016122 4.0541908,-9.0703123 9.0703128,-9.0703123 z"
       id="circle186" />
    <path
       style="color:#000000;fill:#ff7800;fill-rule:evenodd;stroke-linecap:round;-inkscape-stroke:none"
       d="m 6.4863281,19.931641 c -4.1963557,0 -7.9912802,0.224575 -10.8007812,0.601562 -1.4047506,0.188493 -2.5558452,0.408083 -3.4550781,0.693359 -0.4496165,0.142639 -0.8349843,0.290648 -1.2167969,0.541016 -0.3818126,0.250368 -0.9355469,0.731421 -0.9355469,1.572266 0,0.840844 0.5537343,1.321897 0.9355469,1.572265 0.3818126,0.250368 0.7671804,0.398378 1.2167969,0.541016 0.8992329,0.285276 2.0503275,0.504866 3.4550781,0.693359 2.809501,0.376987 6.6044255,0.601563 10.8007812,0.601563 4.1963559,0 7.9912799,-0.224576 10.8007809,-0.601563 1.404751,-0.188493 2.553892,-0.408083 3.453125,-0.693359 0.449617,-0.142638 0.836938,-0.290648 1.21875,-0.541016 0.381813,-0.250368 0.933594,-0.731421 0.933594,-1.572265 0,-0.840845 -0.551781,-1.321898 -0.933594,-1.572266 C 21.577172,21.51721 21.189851,21.369201 20.740234,21.226562 19.841001,20.941286 18.69186,20.721696 17.287109,20.533203 14.477608,20.156216 10.682684,19.931641 6.4863281,19.931641 Z m 0,2.787109 c 4.0952729,0 7.8054349,0.225995 10.4296879,0.578125 0.09623,0.01291 0.125418,0.02966 0.21875,0.04297 -0.09333,0.0133 -0.122523,0.03006 -0.21875,0.04297 -2.624253,0.35213 -6.334415,0.578126 -10.4296879,0.578125 -4.0952726,0 -7.8073882,-0.225995 -10.4316406,-0.578125 -0.096288,-0.01292 -0.1253613,-0.02966 -0.21875,-0.04297 0.093389,-0.01331 0.1224621,-0.03005 0.21875,-0.04297 2.6242524,-0.35213 6.336368,-0.578125 10.4316406,-0.578125 z"
       id="ellipse186"
       transform="matrix(0.85831385,-0.51312507,0.48698874,0.87340825,0,0)" />
    <path
       style="color:#000000;fill:#ffa348;fill-rule:evenodd;stroke-linecap:round;-inkscape-stroke:none"
       d="m 6.4863281,20.628906 c -4.1710849,0 -7.9457954,0.224931 -10.7089843,0.595703 -1.3815945,0.185387 -2.5064634,0.40287 -3.3359375,0.666016 -0.4147371,0.131573 -0.7540202,0.270183 -1.0449219,0.460937 -0.2909018,0.190755 -0.6210938,0.498322 -0.6210938,0.988282 0,0.489959 0.330192,0.797527 0.6210938,0.988281 0.2909017,0.190754 0.6301848,0.329365 1.0449219,0.460937 0.8294741,0.263146 1.954343,0.48063 3.3359375,0.666016 2.7631889,0.370773 6.5378994,0.595703 10.7089843,0.595703 4.1710849,0 7.9457959,-0.22493 10.7089839,-0.595703 1.381595,-0.185386 2.506464,-0.40287 3.335938,-0.666016 0.414737,-0.131572 0.75402,-0.270183 1.044922,-0.460937 0.290902,-0.190754 0.621094,-0.498322 0.621094,-0.988281 0,-0.48996 -0.330192,-0.797527 -0.621094,-0.988282 C 21.28527,22.160808 20.945987,22.022198 20.53125,21.890625 19.701776,21.627479 18.576907,21.409996 17.195312,21.224609 14.432124,20.853837 10.657413,20.628906 6.4863281,20.628906 Z m 0,1.392578 c 4.1205429,0 7.8528729,0.225641 10.5234379,0.583985 1.335282,0.179172 2.409652,0.39635 3.099609,0.615234 0.13806,0.0438 0.176689,0.07657 0.28125,0.119141 -0.104561,0.04257 -0.14319,0.07534 -0.28125,0.11914 -0.689957,0.218885 -1.764327,0.436063 -3.099609,0.615235 -2.670565,0.358344 -6.402895,0.583984 -10.5234379,0.583984 -4.1205433,0 -7.8528729,-0.22564 -10.5234375,-0.583984 -1.3352823,-0.179172 -2.4096527,-0.39635 -3.0996093,-0.615235 -0.1380601,-0.0438 -0.1766887,-0.07657 -0.28125,-0.11914 0.1045613,-0.04257 0.1431899,-0.07534 0.28125,-0.119141 0.6899566,-0.218884 1.764327,-0.436062 3.0996093,-0.615234 2.6705646,-0.358344 6.4028942,-0.583985 10.5234375,-0.583985 z"
       id="ellipse187"
       transform="matrix(0.85831385,-0.51312507,0.48698874,0.87340825,0,0)" />
    <ellipse
       style="fill:#ffbe6f;fill-opacity:1;fill-rule:evenodd;stroke:none;stroke-width:1.39391;stroke-linecap:round;stroke-dasharray:none;stroke-opacity:1"
       id="ellipse188"
       cx="6.4860425"
       cy="23.339911"
       rx="15.013336"
       ry="2.0145316"
       transform="matrix(0.85831385,-0.51312507,0.48698874,0.87340825,0,0)" />
    <path
       style="fill:#f9f06b;fill-rule:evenodd;stroke:none;stroke-width:2.78719;stroke-linecap:round;stroke-dasharray:none;stroke-opacity:1"
       d="M 14.105654,29.23393 C 2.1371115,11.531562 17.630721,10.06503 20.940517,3.2145304 19.430544,13.716295 20.06018,18.383953 24.32313,22.659356 c -0.396171,0.942157 -0.516091,1.936621 -0.254092,3.317943 -5.752561,-3.892491 -7.706179,-10.001231 -6.516454,-15.203652 -6.525293,4.320833 -5.625585,9.211279 -1.632963,15.509801 -0.972911,0.959371 -1.528153,1.695282 -1.813967,2.950482 z"
       id="path188"
       sodipodi:nodetypes="ccccccc" />
    <path
       style="color:#000000;fill:#f8e45c;fill-rule:evenodd;stroke-linecap:round;-inkscape-stroke:none"
       d="M 20.312397,2.9121094 C 19.573351,4.4417603 18.075866,5.7687575 16.359272,7.1347656 14.642678,8.5007737 12.72667,9.9017719 11.253803,11.714844 9.7809363,13.527916 8.7723282,15.797349 8.9627878,18.708984 9.1532475,21.62062 10.49549,25.137926 13.529194,29.625 l 0.898437,1.330078 0.357422,-1.566406 c 0.25553,-1.122203 0.682611,-1.682027 1.623047,-2.609375 l 0.400391,-0.394531 -0.300782,-0.47461 c -1.965319,-3.10037 -3.102538,-5.788283 -3.019531,-8.097656 0.06829,-1.8998 1.204386,-3.62592 3.251953,-5.341797 -0.459711,5.027345 1.618496,10.484861 6.9375,14.083984 l 1.388672,0.9375 -0.3125,-1.644531 c -0.243334,-1.282916 -0.136797,-2.091 0.210938,-2.917969 l 0.18164,-0.43164 -0.330078,-0.330078 c -2.054062,-2.060063 -3.18153,-4.12162 -3.662109,-7.009766 -0.480579,-2.888146 -0.274412,-6.6207721 0.476562,-11.8437499 z m -0.328125,2.7714843 c -0.453807,3.8911291 -0.630841,7.1444093 -0.205078,9.7031253 0.49761,2.990498 1.773652,5.299062 3.796875,7.427734 -0.158132,0.472826 -0.27288,0.969981 -0.300781,1.511719 -4.486228,-3.726137 -6.073173,-8.891616 -5.042969,-13.396484 l 0.388672,-1.6992192 -1.453125,0.9628902 c -3.375834,2.235366 -4.971959,4.777676 -5.072266,7.56836 -0.09525,2.650135 1.137401,5.422102 2.992188,8.43164 -0.426506,0.455862 -0.788454,0.94308 -1.06836,1.453125 -2.329605,-3.719523 -3.516094,-6.737393 -3.666015,-9.029297 -0.16721,-2.556202 0.662279,-4.400771 1.980468,-6.023437 1.31819,-1.622666 3.147261,-2.9783216 4.892578,-4.3671875 1.002351,-0.7976371 1.93101,-1.6395274 2.757813,-2.5429688 z"
       id="path189" />
  </g>
  <g
     inkscape:groupmode="layer"
     id="g222"
     inkscape:label="Final Object"
     style="display:inline">
    <g
       id="g244"
       style="fill:#3364d1;fill-opacity:1"
       transform="translate(-2.6379379e-4,0.70925745)">
      <path
         d="m 9.1653321,21.449337 c -0.2897306,0.215709 -0.5653925,0.425601 -0.8283732,0.629936 0.045934,0.05251 0.090467,0.106063 0.1374593,0.157613 0.1680519,0.18435 0.3449769,0.360755 0.5260661,0.532267 0.1847097,0.174941 0.3746026,0.344113 0.5720581,0.504879 0.2054812,0.1673 0.4177657,0.326454 0.6361366,0.47749 0.02226,0.0154 0.04376,0.0318 0.06615,0.04703 0.206317,0.140272 0.419326,0.270803 0.636137,0.395841 0.132658,0.07651 0.267239,0.150089 0.403593,0.220658 0.366477,0.18967 0.745028,0.359415 1.135848,0.503846 0.69995,0.258672 1.436679,0.439768 2.199349,0.537951 -0.2321,-0.394622 -0.451912,-0.78569 -0.658358,-1.172538 -0.671609,-0.147435 -1.315926,-0.367789 -1.922363,-0.65474 -0.10819,-0.05119 -0.214616,-0.105419 -0.320394,-0.160714 -0.148932,-0.07785 -0.29586,-0.158689 -0.439766,-0.24443 -0.232853,-0.138736 -0.458247,-0.288594 -0.676962,-0.447001 -0.0065,-0.0047 -0.01315,-0.0092 -0.01964,-0.01395 -0.2031,-0.147926 -0.399295,-0.304288 -0.589112,-0.468195 C 9.8690777,22.16223 9.7188424,22.025388 9.5740927,21.882385 9.5402121,21.848914 9.5071921,21.814582 9.4738404,21.780583 9.3682288,21.672921 9.2654999,21.56215 9.1653321,21.449337 Z"
         style="fill:#3364d1;fill-rule:evenodd;stroke-width:2.78719;stroke-linecap:round;fill-opacity:1"
         id="path239" />
      <path
         d="m 22.561931,21.637956 c -0.32775,0.348783 -0.682933,0.671395 -1.061951,0.964799 -0.226086,0.175017 -0.460399,0.339609 -0.7028,0.492993 -0.193114,0.122198 -0.390597,0.237553 -0.593245,0.345199 -1.268606,0.673879 -2.715929,1.057299 -4.254521,1.057299 -0.09821,0 -0.195559,-0.0041 -0.293005,-0.0072 0.195479,0.342382 0.403703,0.690624 0.622184,1.043864 1.682084,-0.05411 3.260746,-0.519743 4.63951,-1.300179 0.204127,-0.115544 0.403913,-0.237383 0.59893,-0.366386 0.241295,-0.159616 0.474988,-0.32988 0.701249,-0.509013 0.359972,-0.284993 0.700051,-0.593524 1.018026,-0.923975 -0.235868,-0.262203 -0.460815,-0.528036 -0.674377,-0.797367 z"
         style="fill:#3364d1;fill-rule:evenodd;stroke-width:2.78719;stroke-linecap:round;fill-opacity:1"
         id="path238" />
      <path
         d="m 25.418087,11.865426 c -0.305034,0.13494 -0.621097,0.279047 -0.949296,0.432531 0.05207,0.142049 0.101173,0.285686 0.146244,0.430982 0.07359,0.237213 0.135427,0.479859 0.189653,0.72502 0.05541,0.250497 0.100091,0.504877 0.134358,0.762744 0.03517,0.26464 0.06044,0.532165 0.07235,0.803569 0.0059,0.134493 0.01034,0.269692 0.01034,0.40566 0,0.150857 -0.0041,0.300549 -0.01137,0.449585 -0.08476,1.741676 -0.660171,3.352355 -1.589567,4.699455 0.212273,0.280722 0.43906,0.557851 0.682129,0.833024 1.233041,-1.676567 1.963704,-3.744768 1.963704,-5.982064 0,-0.103221 -0.0047,-0.205508 -0.0078,-0.307992 -0.0083,-0.277262 -0.02707,-0.551944 -0.05736,-0.823205 -0.02933,-0.262672 -0.06923,-0.522009 -0.118339,-0.778247 -0.04812,-0.251068 -0.105212,-0.49897 -0.171566,-0.743107 -0.06517,-0.239768 -0.139136,-0.475598 -0.221175,-0.707967 -0.02363,-0.06692 -0.04736,-0.133717 -0.07235,-0.199988 z"
         style="fill:#3364d1;fill-rule:evenodd;stroke-width:1.39391;stroke-linecap:round;fill-opacity:1"
         id="path237" />
      <path
         d="m 21.193022,6.7768474 c -0.04284,0.4021614 -0.07687,0.78563 -0.110588,1.1673706 0.768772,0.5277565 1.450621,1.1714934 2.023133,1.9053101 0.145733,0.1867939 0.285,0.3785829 0.415995,0.5767089 0.129711,0.196185 0.251925,0.398116 0.366386,0.604614 C 24.213676,10.8772 24.53025,10.7315 24.836727,10.594185 24.723915,10.387452 24.602012,10.186757 24.475509,9.9890545 24.347448,9.788918 24.214379,9.5922312 24.072949,9.4020102 23.292595,8.3524463 22.31439,7.4586249 21.193022,6.7768474 Z"
         style="fill:#3364d1;fill-rule:evenodd;stroke-linecap:round;fill-opacity:1"
         id="path236" />
      <path
         d="m 15.949414,5.310787 c -5.580927,0 -10.1156615,4.5342173 -10.1156615,10.115145 0,1.547321 0.3498015,3.013542 0.9725505,4.325834 0.1011748,0.213202 0.2107465,0.421604 0.3260783,0.626319 0.1148025,0.203775 0.2361192,0.40316 0.3643188,0.597896 C 7.7614572,20.770831 8.038551,20.56064 8.3271404,20.346045 8.200411,20.149834 8.0790744,19.949765 7.9674724,19.743498 7.8555739,19.536682 7.7533212,19.324019 7.6574138,19.107878 7.1581709,17.982761 6.87865,16.737737 6.87865,15.425932 c 10e-8,-5.016067 4.054697,-9.0702475 9.070764,-9.0702475 0.424121,0 0.840497,0.031235 1.24902,0.087333 0.302358,0.041519 0.599905,0.097481 0.891935,0.1679484 0.25613,0.061805 0.507385,0.1350962 0.754476,0.2180746 0.333164,0.1118838 0.658524,0.2409277 0.973067,0.3891235 0.03571,-0.3555822 0.07654,-0.721484 0.117822,-1.0888224 -0.09,-0.038694 -0.181536,-0.074454 -0.272851,-0.1105876 C 19.443082,5.9317777 19.220671,5.8501538 18.993673,5.7784587 18.735393,5.6968837 18.471815,5.6280212 18.205091,5.5671021 17.4792,5.4013109 16.725035,5.310787 15.949414,5.310787 Z"
         style="fill:#3364d1;fill-rule:evenodd;stroke-linecap:round;fill-opacity:1"
         id="path235" />
    </g>
    <g
       id="g243"
       style="fill:#ffffff"
       transform="translate(-2.6379379e-4,0.70925745)">
      <path
         d="m 12.834359,18.892904 c -0.221092,0.145284 -0.432725,0.28811 -0.646989,0.431498 -0.536771,0.359212 -1.057192,0.713574 -1.546676,1.0573 -0.218952,0.153753 -0.426532,0.303289 -0.635103,0.453202 0.04968,0.201332 0.104901,0.406036 0.165365,0.613916 0.0052,0.01785 0.01178,0.03637 0.01705,0.05426 0.05994,0.203492 0.125283,0.410195 0.195853,0.620118 0.0706,0.210011 0.146857,0.423649 0.22841,0.640271 0.0024,0.0065 0.0053,0.01314 0.0078,0.01964 0.08093,0.214279 0.167473,0.431764 0.259415,0.652673 0.08776,0.210865 0.179946,0.424766 0.27802,0.641821 0.05032,0.111359 0.104012,0.22443 0.157096,0.337447 0.152947,0.32563 0.314424,0.656608 0.490926,0.996322 0.615196,1.184068 1.375206,2.454492 2.300118,3.822506 0.285808,-1.255174 0.840952,-1.990857 1.813843,-2.950208 -0.0096,-0.01519 -0.0178,-0.02979 -0.02739,-0.04496 -0.151134,-0.239059 -0.290595,-0.472923 -0.432531,-0.707967 -0.225274,-0.37305 -0.437133,-0.741604 -0.637688,-1.104843 -0.142365,-0.257848 -0.279152,-0.513814 -0.408243,-0.766878 -0.171032,-0.335281 -0.331664,-0.667104 -0.478007,-0.994254 -0.09694,-0.216705 -0.188357,-0.431674 -0.273885,-0.644922 -0.0887,-0.221152 -0.177291,-0.442377 -0.253215,-0.659908 -0.07878,-0.225703 -0.150512,-0.449363 -0.214974,-0.671277 -0.06808,-0.234357 -0.126311,-0.466339 -0.177767,-0.696598 -0.083,-0.371411 -0.143919,-0.737966 -0.181384,-1.099158 z"
         style="fill:#ffffff;fill-rule:evenodd;stroke-linecap:round"
         id="path243" />
      <path
         d="M 20.940324,3.2142741 C 20.591296,3.9366799 20.101527,4.5975081 19.528007,5.2255209 19.357185,5.4125743 19.179058,5.59686 18.993673,5.7784587 18.705802,6.0604499 18.40579,6.3380035 18.090369,6.610966 17.869132,6.802422 17.632979,6.9908096 17.402039,7.1799236 14.029642,9.9415402 9.8028199,12.547801 9.6423056,17.689876 c -0.00847,0.271407 -0.00412,0.551215 0.010852,0.837159 0.013704,0.261712 0.037838,0.530076 0.072347,0.804602 0.2129459,-0.150955 0.4302644,-0.303302 0.6516394,-0.45682 0.55175,-0.381506 1.12714,-0.769303 1.721342,-1.160136 0.242797,-0.158772 0.488376,-0.317839 0.73639,-0.476973 0.03603,-0.318299 0.09416,-0.632779 0.174666,-0.943612 0.09216,-0.355815 0.215957,-0.706536 0.369486,-1.053166 0.695333,-1.569886 2.032485,-3.049792 4.173389,-4.467427 -0.161028,0.704143 -0.25911,1.425816 -0.30334,2.155424 -0.01651,0.272335 -0.02901,0.545187 -0.02894,0.819588 7.1e-5,0.262775 0.01403,0.526702 0.02946,0.790649 0.232825,-0.136077 0.465635,-0.271007 0.698149,-0.404626 0.543162,-0.309895 1.083237,-0.611778 1.616955,-0.903821 0.221539,-0.119451 0.441588,-0.236971 0.659909,-0.352433 -0.01144,-0.253079 -0.01181,-0.521891 -0.01602,-0.785482 -0.0041,-0.259276 -0.0089,-0.518616 -0.0062,-0.788582 0.0094,-0.931448 0.05852,-1.9290226 0.145727,-3.0013675 0.02041,-0.2509747 0.04632,-0.5126385 0.0708,-0.7720459 0.03445,-0.3650546 0.07136,-0.7369104 0.113688,-1.1193116 0.0267,-0.2412529 0.0555,-0.4874698 0.08527,-0.7358724 0.09438,-0.7874414 0.198338,-1.5980827 0.322461,-2.4613485 z"
         style="fill:#ffffff;fill-rule:evenodd;stroke-linecap:round"
         id="path242" />
      <path
         d="m 20.350696,14.390853 c -0.215645,0.117289 -0.436334,0.240222 -0.655774,0.361735 -0.521704,0.28889 -1.051013,0.586343 -1.590601,0.89762 -0.225699,0.130201 -0.453923,0.264568 -0.682128,0.398425 0.07232,0.423751 0.167549,0.846173 0.280603,1.267106 0.06235,0.232158 0.12355,0.464436 0.198437,0.695048 0.07292,0.224567 0.151772,0.448117 0.236678,0.67076 0.08327,0.21834 0.170221,0.436097 0.2651,0.652157 0.09342,0.212736 0.193924,0.423954 0.29869,0.63407 0.444619,0.891712 0.992386,1.757495 1.645378,2.582788 0.145234,0.183556 0.294362,0.365855 0.450101,0.545186 0.228123,0.262678 0.469001,0.519857 0.719853,0.772563 0.165539,0.166763 0.335044,0.331478 0.510563,0.49351 0.618303,0.57079 1.297253,1.111998 2.041219,1.615405 -0.261995,-1.381301 -0.141917,-2.375484 0.254248,-3.317627 -0.06344,-0.06362 -0.118516,-0.12842 -0.18035,-0.192236 -0.163297,-0.16853 -0.323707,-0.337658 -0.47594,-0.50798 -0.238674,-0.267033 -0.463361,-0.537279 -0.675411,-0.810803 -0.148927,-0.1921 -0.295927,-0.384989 -0.432015,-0.58136 -0.488323,-0.704633 -0.895087,-1.440035 -1.225248,-2.225704 -0.09124,-0.217122 -0.175058,-0.439261 -0.254765,-0.664559 -0.07911,-0.223599 -0.153197,-0.451183 -0.221175,-0.683679 -0.06769,-0.231494 -0.130189,-0.467338 -0.187069,-0.708484 -0.05618,-0.238173 -0.106586,-0.482312 -0.152446,-0.730704 -0.06896,-0.373532 -0.1217,-0.764331 -0.167948,-1.163237 z"
         style="fill:#ffffff;fill-rule:evenodd;stroke-width:2.78719;stroke-linecap:round"
         id="path241" />
    </g>
    <path
       d="m 29.274435,9.156804 c -0.303902,-7.72e-5 -0.624656,0.051287 -0.992187,0.1369425 -0.834981,0.1945975 -1.899298,0.579107 -3.165182,1.1208615 -0.0077,0.0033 -0.01449,0.006 -0.02222,0.0093 -0.199022,0.08531 -0.411151,0.181346 -0.6196,0.274402 -0.308334,0.137647 -0.626445,0.283225 -0.953947,0.437183 -0.208604,0.09806 -0.4162,0.19581 -0.632003,0.30024 -0.635024,0.307298 -1.299851,0.641888 -1.989543,1.000973 -0.227006,0.11819 -0.459325,0.24191 -0.69143,0.365352 -0.221089,0.117583 -0.439723,0.231794 -0.665076,0.353984 -0.523921,0.284079 -1.060755,0.584332 -1.604553,0.891935 -0.238083,0.134673 -0.477537,0.270877 -0.718819,0.409794 -0.177318,0.102089 -0.354947,0.20472 -0.533818,0.309025 -0.35549,0.207297 -0.712048,0.415817 -1.072803,0.631486 -0.529094,0.316308 -1.04501,0.631949 -1.552876,0.946712 -0.355062,0.220059 -0.707725,0.440086 -1.051099,0.658358 -0.279077,0.1774 -0.548361,0.352938 -0.819072,0.52865 -0.644776,0.41851 -1.264468,0.831022 -1.856217,1.235583 -0.230096,0.15731 -0.4598391,0.314151 -0.6810952,0.468706 -0.2283972,0.159543 -0.4460804,0.315074 -0.6645589,0.471289 -0.1508623,0.107868 -0.3077903,0.218407 -0.4537191,0.324528 -0.1967465,0.143076 -0.3799846,0.281026 -0.5674072,0.420646 -0.2903238,0.216275 -0.5683903,0.427587 -0.8350911,0.634587 -0.140128,0.10876 -0.2873595,0.220647 -0.4206462,0.326595 -0.045957,0.03653 -0.085101,0.07029 -0.1302246,0.106453 -1.0304751,0.825896 -1.8493779,1.55904 -2.4086386,2.186947 -0.2918752,0.327701 -0.5155338,0.622595 -0.6723103,0.938444 -0.1567762,0.315849 -0.2902612,0.753941 -0.051677,1.18184 0.2385843,0.427898 0.6713407,0.527334 1.0138916,0.544669 0.3425509,0.01734 0.7013657,-0.03544 1.1213786,-0.133325 0.8400269,-0.195773 1.911905,-0.583197 3.1879192,-1.130163 0.2280446,-0.09775 0.4696641,-0.206812 0.7100342,-0.31471 C 9.2715998,24.636535 9.0696119,24.469051 8.8715462,24.296965 8.6807456,24.131191 8.4937639,23.961315 8.314991,23.782784 c -0.018097,0.0078 -0.03832,0.01709 -0.056327,0.02481 -1.2332412,0.528632 -2.2612916,0.890321 -2.9600261,1.053166 -0.1398171,0.03258 -0.1892552,0.02384 -0.2997233,0.04031 0.069009,-0.09083 0.086291,-0.139474 0.1834513,-0.248563 0.4545843,-0.510381 1.2085112,-1.196471 2.1704102,-1.971973 0.065553,-0.05285 0.1231362,-0.102368 0.1906861,-0.156063 0.1113226,-0.08849 0.2363104,-0.18257 0.35295,-0.273368 0.2628988,-0.204653 0.5376757,-0.414579 0.8263062,-0.629936 0.1649961,-0.123109 0.327795,-0.245311 0.5007446,-0.371553 0.021416,-0.01563 0.040477,-0.03031 0.062012,-0.04599 0.1800273,-0.131064 0.3725451,-0.266912 0.5606893,-0.401009 0.2090807,-0.149018 0.4185447,-0.297721 0.6371707,-0.450101 0.515976,-0.359632 1.060797,-0.728197 1.625224,-1.102775 0.224534,-0.149012 0.450143,-0.298279 0.681612,-0.449069 0.233697,-0.152241 0.470213,-0.305175 0.710551,-0.458886 0.891134,-0.569937 1.821988,-1.148006 2.790527,-1.727027 0.168244,-0.100581 0.333062,-0.195796 0.500228,-0.294555 0.175889,-0.103913 0.35204,-0.207712 0.526583,-0.309542 0.230479,-0.134465 0.458446,-0.266175 0.686263,-0.396875 0.547032,-0.313837 1.084673,-0.615769 1.612821,-0.906405 0.221592,-0.12194 0.443814,-0.245177 0.661459,-0.362768 0.227782,-0.12307 0.450297,-0.240504 0.673344,-0.358635 0.916664,-0.485488 1.795841,-0.932687 2.61431,-1.327051 0.217812,-0.104948 0.424526,-0.200235 0.63407,-0.298173 0.326891,-0.152784 0.642178,-0.296504 0.947229,-0.431498 0.153305,-0.06784 0.313046,-0.140942 0.460437,-0.204122 0.06159,-0.0264 0.116183,-0.0473 0.176734,-0.07286 1.151927,-0.486329 2.119418,-0.825581 2.783292,-0.980301 0.139825,-0.03259 0.18925,-0.02384 0.299724,-0.04031 -0.06901,0.09083 -0.08629,0.138953 -0.183452,0.248047 -0.485589,0.545192 -1.302295,1.286406 -2.361096,2.128035 -0.0061,0.0048 -0.01305,0.01016 -0.01912,0.01499 0.07254,0.240401 0.135845,0.484679 0.191719,0.731739 0.05684,0.251346 0.106818,0.505184 0.145728,0.762744 0.172799,-0.133446 0.351015,-0.269138 0.513664,-0.398425 1.095527,-0.870822 1.955081,-1.637963 2.538863,-2.293401 0.291891,-0.327717 0.515525,-0.623095 0.67231,-0.93896 0.156786,-0.315866 0.290274,-0.753919 0.05168,-1.1818402 -0.238602,-0.4279385 -0.671843,-0.5273489 -1.014413,-0.5446862 -0.04282,-0.00217 -0.08578,-0.00309 -0.129191,-0.0031 z"
       style="fill:#ffbf00;fill-rule:evenodd;stroke-linecap:round;fill-opacity:1"
       id="path240" />
  </g>
</svg>
