<?xml version="1.0" encoding="UTF-8" standalone="no"?>
<!-- Created with Inkscape (http://www.inkscape.org/) -->

<svg
   width="14in"
   height="8.5in"
   viewBox="0 0 355.6 215.9"
   version="1.1"
   id="svg1"
   inkscape:version="1.3.2 (091e20e, 2023-11-25, custom)"
   sodipodi:docname="Title Card.svg"
   inkscape:export-filename="WIP1 Title Card.png"
   inkscape:export-xdpi="96"
   inkscape:export-ydpi="96"
   xmlns:inkscape="http://www.inkscape.org/namespaces/inkscape"
   xmlns:sodipodi="http://sodipodi.sourceforge.net/DTD/sodipodi-0.dtd"
   xmlns="http://www.w3.org/2000/svg"
   xmlns:svg="http://www.w3.org/2000/svg">
  <sodipodi:namedview
     id="namedview1"
     pagecolor="#2a2a2a"
     bordercolor="#a3a3a3"
     borderopacity="1"
     inkscape:showpageshadow="0"
     inkscape:pageopacity="0"
     inkscape:pagecheckerboard="0"
     inkscape:deskcolor="#292929"
     inkscape:document-units="mm"
     inkscape:export-bgcolor="#27272700"
     inkscape:zoom="0.51993146"
     inkscape:cx="490.44926"
     inkscape:cy="-7.6933218"
     inkscape:window-width="2560"
     inkscape:window-height="1411"
     inkscape:window-x="1911"
     inkscape:window-y="-9"
     inkscape:window-maximized="1"
     inkscape:current-layer="layer1" />
  <defs
     id="defs1">
    <rect
       x="651.0614"
       y="67.351179"
       width="806.34328"
       height="716.54171"
       id="rect2" />
    <rect
       x="681.2946"
       y="185.2063"
       width="857.80467"
       height="547.81916"
       id="rect1" />
  </defs>
  <g
     inkscape:label="Layer 1"
     inkscape:groupmode="layer"
     id="layer1">
    <g
       id="g200"
       style="display:inline;fill:#3364d1;fill-opacity:1;stroke-width:0.0833876"
       transform="matrix(11.992189,0,0,11.992189,16.763026,28.366385)">
      <path
         d="M 8.2646118,3.0204875 C 8.2483795,3.1712224 8.2351234,3.3155103 8.2222371,3.4587036 8.5455297,3.6681112 8.8314199,3.930057 9.0676636,4.2328166 9.1228654,4.3035609 9.1756445,4.3763807 9.2252767,4.4514079 9.3496889,4.3929453 9.4704096,4.3372765 9.5875285,4.2850098 9.5391878,4.2094469 9.488441,4.135162 9.435083,4.0633179 9.1211577,3.6406317 8.7226403,3.2848849 8.2646118,3.0204875 Z"
         style="fill:#3364d1;fill-opacity:1;fill-rule:evenodd;stroke-width:0.0833876;stroke-linecap:round"
         id="path200" />
      <path
         d="M 9.9456462,4.9981445 C 9.8298054,5.0493971 9.709591,5.1041553 9.5849447,5.1624756 c 0.019789,0.053976 0.038684,0.1086025 0.05581,0.1638143 0.027823,0.089694 0.051299,0.1811947 0.07183,0.2738851 0.04265,0.1925473 0.069555,0.3909861 0.078548,0.5942789 0.00228,0.051488 0.00362,0.1029703 0.00362,0.1550293 0,0.057273 -0.00138,0.1144666 -0.00413,0.171049 -0.033124,0.6805453 -0.2638672,1.3079167 -0.6351034,1.8283122 0.081535,0.1044522 0.169043,0.2079128 0.2619995,0.3105754 0.4854332,-0.6432787 0.7741132,-1.4433604 0.7741132,-2.3099366 0,-0.03918 -0.0019,-0.077888 -0.0031,-0.1167887 -0.0032,-0.1056739 -0.01013,-0.2102943 -0.0217,-0.3136759 C 10.144762,5.7219015 10.107592,5.529318 10.056761,5.3423096 10.032091,5.2515226 10.004091,5.162106 9.973046,5.0741089 9.964076,5.0486699 9.95515,5.0233359 9.945658,4.9981449 Z"
         style="fill:#3364d1;fill-opacity:1;fill-rule:evenodd;stroke-width:0.0833876;stroke-linecap:round"
         id="path199" />
      <path
         d="M 8.9906657,8.5627848 C 8.9363597,8.6275472 8.8795082,8.6897998 8.8206502,8.7503703 8.6947179,8.8799666 8.5593849,9.0004581 8.4144735,9.1090047 8.3291367,9.1729267 8.2405936,9.232915 8.1493734,9.2888387 8.0760032,9.3338192 8.0004216,9.3754251 7.9235474,9.4149292 7.4518046,9.6573484 6.9169865,9.794751 6.3494832,9.794751 c -0.061105,0 -0.1215879,-0.00152 -0.181901,-0.00465 0.075063,0.1310707 0.154849,0.264756 0.2387451,0.399976 0.6481294,-0.0095 1.2582478,-0.179453 1.7911052,-0.4728398 C 8.2752838,9.674372 8.3508724,9.6282805 8.4253255,9.5802938 8.5164194,9.5215816 8.6048166,9.4592075 8.6904256,9.3932251 8.8276568,9.2874553 8.9578764,9.1730808 9.0795492,9.0500936 9.1382769,8.9907314 9.194773,8.9291873 9.2495646,8.8661255 9.158269,8.766256 9.0720446,8.6648926 8.9906657,8.5627848 Z"
         style="fill:#3364d1;fill-opacity:1;fill-rule:evenodd;stroke-width:0.0833876;stroke-linecap:round"
         id="path198" />
      <path
         d="m 6.3494832,2.5078573 c -2.1191487,0 -3.8416259,1.7224772 -3.8416259,3.8416259 0,0.5881349 0.1329834,1.1456438 0.3700032,1.6443441 0.038359,0.080708 0.079803,0.1596913 0.1235067,0.2371948 C 3.1028736,8.1522135 3.2086837,8.0715158 3.3191772,7.9891764 3.2768662,7.9109244 3.2386745,7.8301306 3.2023885,7.7483643 3.0126931,7.3209071 2.9062826,6.8478742 2.9062826,6.3494832 c 0,-1.904664 1.5385366,-3.4432006 3.4432006,-3.4432006 0.1295959,0 0.2575848,0.00783 0.3834392,0.021704 0.1191485,0.013138 0.2362512,0.032429 0.3513997,0.057361 0.082139,0.017784 0.1630496,0.038499 0.2428792,0.062012 0.1569685,0.046232 0.3090563,0.10346 0.4557862,0.1705322 0.063245,0.02891 0.1259564,0.058915 0.1870687,0.091467 0.013124,-0.1374894 0.027362,-0.278249 0.043408,-0.4221965 C 7.9529901,2.8579987 7.8916732,2.8305159 7.8294963,2.80448 7.7556741,2.7735678 7.6802521,2.7455598 7.604187,2.7192139 7.5475371,2.6995926 7.4904326,2.6814427 7.4326213,2.6644368 7.3237102,2.6323994 7.2130139,2.6041487 7.1003418,2.5817546 6.8574363,2.5334758 6.6064097,2.5078573 6.3494832,2.5078573 Z"
         style="fill:#3364d1;fill-opacity:1;fill-rule:evenodd;stroke-width:0.0833876;stroke-linecap:round"
         id="path195" />
      <path
         d="m 3.7744466,8.6371989 c -0.1102592,0.082068 -0.2151508,0.1620169 -0.3152262,0.2397786 0.017442,0.019924 0.03435,0.040387 0.052193,0.059945 0.063712,0.069835 0.1308307,0.1365572 0.199471,0.2015381 0.1198769,0.1134858 0.2466619,0.2193281 0.3803385,0.3167765 0.025588,0.018653 0.051455,0.037262 0.077515,0.055294 0.08679,0.060053 0.1764455,0.1160897 0.2682007,0.1689819 0.019271,0.011109 0.038399,0.022291 0.057878,0.033073 0.1385919,0.076713 0.282623,0.1447196 0.4309814,0.204122 0.2703925,0.108265 0.5551422,0.187613 0.8516276,0.232028 0.1033622,0.01548 0.2083312,0.02602 0.3141927,0.03307 C 6.0049644,10.038622 5.9232487,9.897442 5.8461548,9.7580607 5.7364755,9.7420371 5.6286987,9.7205837 5.5226603,9.6944987 5.2976098,9.6391373 5.081285,9.5621714 4.8761882,9.4650553 4.8000476,9.4290018 4.72588,9.3896168 4.652946,9.3482666 4.63097,9.3358072 4.6089872,9.3234684 4.5873169,9.3105428 4.4596082,9.2343688 4.3372122,9.1499161 4.220931,9.0583618 4.1796332,9.0258459 4.1392295,8.9924468 4.0994914,8.9581095 4.0275516,8.8959472 3.9577779,8.8311343 3.8912354,8.7632894 3.8669246,8.7385029 3.8429619,8.7133532 3.8194051,8.6878418 V 8.687325 C 3.8041561,8.670807 3.7893731,8.654014 3.7744466,8.6371989 Z"
         style="fill:#3364d1;fill-opacity:1;fill-rule:evenodd;stroke-width:0.0833876;stroke-linecap:round"
         id="path197" />
    </g>
    <g
       id="g210"
       style="display:inline;fill:#ffffff;stroke-width:0.0833876"
       transform="matrix(11.992189,0,0,11.992189,18.151237,28.366385)">
      <path
         d="M 8.1653931,1.6965373 C 7.2536382,3.5836553 3.9081942,4.3954678 3.8746989,7.2651896 3.8724143,7.4609209 3.885675,7.6663273 3.91604,7.8822062 4.2753563,7.6264528 4.6671282,7.3606945 5.0808268,7.0920736 5.18333,5.9047457 6.0623171,5.107537 6.8791667,4.5666463 6.7444581,5.1556986 6.7428187,5.7215653 6.766512,6.0580282 7.1476722,5.8357829 7.5273003,5.6224697 7.8977091,5.422408 7.8458413,4.4153435 7.9470169,3.215329 8.1653931,1.6965373 Z"
         style="fill:#ffffff;fill-rule:evenodd;stroke-width:0.0882515;stroke-linecap:round"
         id="path208"
         sodipodi:nodetypes="cscccccc" />
      <path
         d="M 7.9488688,5.9975667 C 7.5905528,6.1935927 7.2186613,6.4049426 6.8383423,6.6290527 7.0003745,7.5169474 7.5427689,9.1147441 9.3534342,10.339937 9.2539499,9.8154328 9.2996383,9.4378138 9.4500692,9.0800659 8.4040905,8.0310316 8.0774285,7.0326721 7.9488688,5.9975667 Z"
         style="display:inline;fill:#ffffff;fill-rule:evenodd;stroke-width:0.044136;stroke-linecap:round"
         id="path210"
         sodipodi:nodetypes="ccccc" />
      <path
         d="M 5.0947795,7.7147746 C 4.7100095,7.9688286 4.3526507,8.2154681 4.030245,8.4485799 4.2934441,9.4663815 4.8737649,10.545955 5.5702026,11.576038 5.6787294,11.099424 5.8896241,10.819976 6.2590495,10.455693 5.5986137,9.4138276 5.1937385,8.5156595 5.0947795,7.7147746 Z"
         style="display:inline;fill:#ffffff;fill-rule:evenodd;stroke-width:0.044136;stroke-linecap:round"
         id="path209"
         sodipodi:nodetypes="ccccc" />
    </g>
    <path
       d="m 153.58333,72.73788 c -1.38149,0.0016 -2.83159,0.242003 -4.50523,0.632109 -3.8014,0.885983 -8.6641,2.634217 -14.42698,5.100243 -0.0359,0.01559 -0.072,0.02759 -0.10785,0.04316 -0.90181,0.386267 -1.86369,0.818229 -2.80736,1.239397 -1.40454,0.626833 -2.85224,1.294381 -4.34418,1.995469 -0.95098,0.447069 -1.89752,0.893541 -2.88171,1.369571 -3.18405,1.540202 -6.51932,3.219774 -10.0021,5.044462 -1.03012,0.539887 -2.09551,1.110115 -3.14819,1.673227 -0.94979,0.507754 -1.89093,1.010816 -2.8569,1.536894 -2.45732,1.338182 -4.97964,2.745655 -7.52953,4.195461 -1.068508,0.607274 -2.128487,1.208653 -3.210063,1.834347 -0.918601,0.531145 -1.849443,1.085898 -2.776318,1.629853 -1.204967,0.707182 -2.401316,1.403797 -3.619121,2.131807 -3.027911,1.81017 -5.959883,3.61379 -8.830928,5.41013 -1.419392,0.88801 -2.819486,1.77794 -4.195473,2.65855 -1.22596,0.78464 -2.442567,1.56582 -3.631464,2.34251 -2.892156,1.88928 -5.649279,3.74196 -8.297998,5.56502 -1.038526,0.71509 -2.082212,1.42989 -3.079949,2.13183 -1.028936,0.72349 -2.017098,1.43025 -2.999498,2.138 -0.389741,0.28085 -0.807072,0.57083 -1.189616,0.84904 -0.894617,0.65092 -1.725555,1.27969 -2.577962,1.91493 -1.325027,0.98742 -2.594031,1.95522 -3.811239,2.90025 -0.631995,0.49108 -1.30056,0.99644 -1.902558,1.47492 -0.212272,0.16837 -0.393346,0.32283 -0.600815,0.48953 -4.689188,3.75967 -8.417308,7.10719 -10.962652,9.96498 -1.329216,1.4923 -2.353706,2.82533 -3.067606,4.26363 -0.713528,1.4383 -1.328138,3.43056 -0.242241,5.37912 1.086494,1.94855 3.063162,2.39372 4.623112,2.47266 1.559814,0.0791 3.193753,-0.14918 5.106383,-0.59492 3.825273,-0.89151 8.70921,-2.67144 14.519903,-5.16221 1.036131,-0.44418 2.13666,-0.93525 3.228662,-1.42535 -1.877977,-1.40704 -3.653056,-2.94954 -5.310979,-4.60446 -0.08394,0.0347 -0.167894,0.0779 -0.248242,0.11147 -5.615823,2.40725 -10.309198,4.05502 -13.491088,4.79659 -0.639179,0.14887 -0.864632,0.11743 -1.369629,0.19211 0.314196,-0.41397 0.399332,-0.63667 0.843057,-1.1341 2.070318,-2.32443 5.514243,-5.44237 9.896911,-8.97347 0.298605,-0.24018 0.560027,-0.46241 0.867025,-0.70645 0.504877,-0.40114 1.070904,-0.82781 1.598927,-1.23943 1.199222,-0.93358 2.45168,-1.8929 3.767818,-2.87548 0.491679,-0.36719 0.985767,-0.73583 1.493517,-1.10927 0.360968,-0.26598 0.696739,-0.51808 1.0661,-0.78705 0.560043,-0.40786 1.164449,-0.83107 1.741503,-1.2456 0.958178,-0.68775 1.896575,-1.37187 2.900193,-2.07603 2.305975,-1.61793 4.767021,-3.28845 7.294005,-4.97631 1.013344,-0.67697 2.015527,-1.34711 3.061368,-2.03266 1.038525,-0.68103 2.116387,-1.37564 3.185361,-2.06366 4.356527,-2.80381 8.923875,-5.65225 13.701923,-8.50864 0.414922,-0.2479 0.820269,-0.47958 1.233157,-0.72506 0.865829,-0.51433 1.725074,-1.01489 2.584201,-1.51829 1.034918,-0.60645 2.068523,-1.21332 3.092413,-1.80336 2.50686,-1.44474 4.96981,-2.825047 7.39318,-4.164492 0.99057,-0.547326 1.98855,-1.107351 2.96221,-1.636044 1.03731,-0.563509 2.04428,-1.09453 3.06134,-1.636044 4.50656,-2.399182 8.81835,-4.601037 12.8157,-6.525571 0.99534,-0.478978 1.93722,-0.916568 2.89408,-1.363389 1.4881,-0.694942 2.92477,-1.344129 4.31324,-1.958284 0.69313,-0.306643 1.41555,-0.63763 2.08219,-0.923397 0.28062,-0.120424 0.53005,-0.217905 0.80589,-0.334708 5.24502,-2.215826 9.65657,-3.776032 12.67932,-4.480529 0.63799,-0.148575 0.85985,-0.117562 1.36339,-0.192117 -0.31539,0.414812 -0.39813,0.635342 -0.84304,1.134101 -2.21125,2.482645 -5.93049,5.872168 -10.75208,9.704716 -0.0239,0.02152 -0.06,0.04678 -0.084,0.0683 0.66435,2.20443 1.18001,4.470792 1.53069,6.792059 0.78668,-0.607765 1.59566,-1.226961 2.3363,-1.815755 4.98876,-3.965439 8.91788,-7.451299 11.57631,-10.435976 1.32921,-1.492343 2.34121,-2.843863 3.05525,-4.282216 0.71352,-1.438371 1.32814,-3.430478 0.24223,-5.379123 -1.08648,-1.948635 -3.06316,-2.399901 -4.6231,-2.478845 -0.19548,-0.0098 -0.39094,-0.01316 -0.58881,-0.01194 z"
       style="display:inline;fill:#ffbf00;fill-opacity:1;fill-rule:evenodd;stroke-width:1;stroke-linecap:round"
       id="path196" />
    <text
       xml:space="preserve"
       transform="matrix(0.21335307,0,0,0.21335307,27.155808,20.172373)"
       id="text1"
       style="font-size:160px;line-height:0.85;font-family:Teko;-inkscape-font-specification:Teko;text-align:center;letter-spacing:0px;white-space:pre;shape-inside:url(#rect1);fill:#3364d1;fill-rule:evenodd;stroke:none;stroke-width:2.48024;stroke-linecap:round"
       x="-478.3071"
       y="0"><tspan
         x="681.29492"
         y="296.54037"
         id="tspan4"><tspan
           style="font-weight:600;font-family:Syne;-inkscape-font-specification:'Syne Semi-Bold';text-align:start;fill:#ffffff;fill-rule:nonzero"
           id="tspan1">Aggie
</tspan></tspan><tspan
         x="681.29492"
         y="448.90929"
         id="tspan6"><tspan
           style="font-weight:600;font-family:Syne;-inkscape-font-specification:'Syne Semi-Bold';text-align:start;fill:#ffffff;fill-rule:nonzero"
           id="tspan5">Space 
</tspan></tspan><tspan
         x="681.29492"
         y="601.27822"
         id="tspan8"><tspan
           style="font-weight:600;font-family:Syne;-inkscape-font-specification:'Syne Semi-Bold';text-align:start;fill:#ffffff;fill-rule:nonzero"
           id="tspan7">Initiative</tspan></tspan></text>
    <text
       xml:space="preserve"
       transform="scale(0.26458333)"
       id="text2"
       style="fill:#ffffff;fill-rule:evenodd;stroke-linecap:round;-inkscape-font-specification:'Syne Semi-Bold';font-family:Syne;font-size:160px;line-height:0.9;letter-spacing:0px;stroke-width:2;font-weight:600;font-style:normal;font-stretch:normal;font-variant:normal;text-align:start;fill-opacity:1;white-space:pre;shape-inside:url(#rect2)" />
  </g>
</svg>
